<?xml version="1.0" standalone="no"?>
<!DOCTYPE svg PUBLIC "-//W3C//DTD SVG 20010904//EN"
        "http://www.w3.org/TR/2001/REC-SVG-20010904/DTD/svg10.dtd">
<svg version="1.0" xmlns="http://www.w3.org/2000/svg"
     width="86.000000pt" height="86.000000pt" viewBox="0 0 86.000000 86.000000"
     preserveAspectRatio="xMidYMid meet">

    <g transform="translate(0.000000,86.000000) scale(0.100000,-0.100000)"
       fill="#000000" stroke="none">
        <path d="M285 770 c-13 -21 15 -50 48 -50 18 0 39 -5 47 -10 11 -7 0 -10 -39
-10 -29 0 -72 -5 -94 -12 -38 -12 -41 -11 -63 17 -18 23 -26 27 -35 18 -9 -9
-8 -18 5 -38 15 -23 23 -26 49 -21 131 25 147 22 164 -31 7 -22 8 -42 3 -47
-5 -5 -33 -2 -68 8 -32 9 -61 16 -65 16 -3 0 -7 -19 -9 -42 l-3 -43 -57 3
c-38 3 -58 0 -58 -7 0 -26 30 -81 66 -121 48 -53 44 -61 -76 -124 l-94 -49 45
-40 c24 -22 80 -57 124 -78 133 -64 261 -73 383 -27 102 38 202 169 233 306 8
34 19 54 33 60 13 7 15 11 7 11 -11 1 -10 5 4 15 18 13 18 14 -1 20 -12 3 -26
25 -37 55 -32 90 -128 151 -215 135 -20 -3 -58 -18 -84 -31 -25 -14 -51 -22
-57 -19 -6 4 -11 24 -11 45 0 47 -14 61 -62 61 -27 0 -40 5 -48 20 -12 22 -25
26 -35 10z m445 -220 c12 -8 11 -10 -7 -10 -42 0 -32 -59 10 -61 12 0 16 -3 9
-6 -23 -9 -63 7 -71 30 -16 43 20 72 59 47z m30 -30 c0 -5 -4 -10 -9 -10 -6 0
-13 5 -16 10 -3 6 1 10 9 10 9 0 16 -4 16 -10z"/>
    </g>
</svg>
